<svg width="901" height="787" viewBox="0 0 901 787" fill="none" xmlns="http://www.w3.org/2000/svg">
<g clip-path="url(#clip0)">
<path d="M675.34 344.11C671.973 325.372 669.908 306.423 669.16 287.4C668.495 271.733 663.001 256.656 653.43 244.234C643.859 231.813 630.68 222.657 615.7 218.02C610.24 216.34 604.23 214.77 597.59 213.36C539.39 201 521.71 211.79 519.7 213.21C517.998 210.116 516.517 206.904 515.27 203.6C515.17 203.26 515.08 202.92 514.98 202.6C526.499 190.316 533.517 174.493 534.89 157.71C544.6 147.87 550.27 135.99 550.27 123.2C550.27 112.2 546.07 101.88 538.72 92.95V75.57C538.72 55.5276 530.758 36.3061 516.586 22.1339C502.414 7.96182 483.192 0 463.15 0H457.02C447.096 0 437.269 1.95468 428.101 5.75243C418.932 9.55017 410.601 15.1166 403.584 22.1339C396.567 29.1513 391 37.482 387.202 46.6506C383.405 55.8192 381.45 65.646 381.45 75.57V94.3C374.78 102.91 371 112.74 371 123.18C371 135.7 376.44 147.34 385.78 157.06C387.056 174.458 394.396 190.857 406.52 203.4C406.93 206.24 407.35 209.29 407.76 212.51L303.66 234.5C303.66 234.5 263.52 236.15 237.66 289.5C215.79 334.69 172.27 450.79 159.38 485.35C157.05 491.61 155.73 495.2 155.73 495.2C155.73 495.2 156.16 494.77 156.97 494.03L155.73 497.4C155.73 497.4 156.36 496.76 157.56 495.71C155.74 510.17 155.48 535 174.42 538.09C190.3 540.68 231.22 541.75 262.13 542.18H264.27C284.76 542.45 300.35 542.45 300.35 542.45V542.18H632.79V538.77C632.794 535.677 632.171 532.616 630.96 529.77L631.42 529.21C633.199 531.559 634.383 534.304 634.87 537.21C634.832 537.493 634.778 537.773 634.71 538.05L634.91 537.54C634.988 538.448 634.921 539.363 634.71 540.25C634.71 540.25 677.36 430.36 676.9 364.74C677.022 357.83 676.5 350.923 675.34 344.11ZM409.49 227.36C408.939 224.225 408.585 221.059 408.43 217.88C408.43 217.88 408.43 217.82 408.43 217.79C408.8 220.88 409.16 224.08 409.49 227.36ZM280.27 463.4V489.59L263.87 493.1L280.27 463.4Z" fill="url(#paint0_linear)"/>
<path d="M458.4 10.5701C478.442 10.5701 497.664 18.5319 511.836 32.704C526.008 46.8761 533.97 66.0977 533.97 86.1401V118.38H382.83V86.1401C382.83 66.0977 390.792 46.8761 404.964 32.704C419.136 18.5319 438.358 10.5701 458.4 10.5701Z" fill="#413E3E"/>
<path d="M458.93 188.14C506.504 188.14 545.07 161.64 545.07 128.95C545.07 96.2603 506.504 69.76 458.93 69.76C411.356 69.76 372.79 96.2603 372.79 128.95C372.79 161.64 411.356 188.14 458.93 188.14Z" fill="#413E3E"/>
<path d="M403.71 186.29C403.71 186.29 421.71 280.36 403.71 305.73C385.71 331.1 458.71 341.14 458.71 341.14L534.27 313.66L544.84 246.01C544.84 246.01 498.84 220.11 508.37 167.79L403.71 186.29Z" fill="#F7C4A7"/>
<path d="M626.73 503.39C626.73 503.39 631.49 524 605.59 527.7C590.297 529.95 574.745 529.764 559.51 527.15L553.8 475.38H614.05L626.73 503.39Z" fill="#F7C4A7"/>
<path d="M214.7 524.01C214.7 524.01 203.26 570.5 229.16 574.7C255.06 578.9 350.16 578.93 350.16 578.93V523.93L307.1 533.13L266.68 494.37L214.7 524.01Z" fill="#F7C4A7"/>
<path opacity="0.1" d="M409.27 216.68L308.06 238.08C308.06 238.08 269.48 239.67 244.64 290.93C219.8 342.19 165.89 488.59 165.89 488.59C165.89 488.59 211.89 442.08 265.78 491.76L301.72 426.76L293.79 529.82H572.27V481.19C572.27 481.19 630.4 512.37 626.18 529.81C626.18 529.81 675.93 401.63 665.18 343.38C661.944 325.372 659.959 307.162 659.24 288.88C658.605 273.823 653.326 259.331 644.126 247.394C634.927 235.457 622.259 226.66 607.86 222.21C602.62 220.6 596.86 219.09 590.46 217.74C530.74 205.06 515.46 217.74 515.46 217.74C515.46 217.74 503.89 255.38 504.1 272.44C504.36 294.37 472.92 308.91 472.92 308.91C472.92 308.91 426.41 297.81 424.3 288.83C422.19 279.85 405.55 227.25 409.27 216.68Z" fill="black"/>
<path d="M409.27 214.57L308.06 235.97C308.06 235.97 269.48 237.56 244.64 288.82C219.8 340.08 165.88 486.5 165.88 486.5C165.88 486.5 211.88 439.99 265.77 489.67L301.71 424.67L293.78 527.7H572.27V479.08C572.27 479.08 630.4 510.26 626.18 527.7C626.18 527.7 675.93 399.52 665.18 341.27C661.944 323.262 659.959 305.052 659.24 286.77C658.605 271.713 653.326 257.221 644.126 245.284C634.927 233.347 622.259 224.55 607.86 220.1C602.62 218.49 596.86 216.98 590.46 215.63C530.74 202.95 515.46 215.63 515.46 215.63C515.46 215.63 503.89 253.27 504.1 270.33C504.36 292.26 472.92 306.8 472.92 306.8C472.92 306.8 426.41 295.7 424.3 286.72C422.19 277.74 405.55 225.14 409.27 214.57Z" fill="white"/>
<path opacity="0.1" d="M512.69 210.08C508.439 198.044 507.486 185.089 509.93 172.56L405.27 191.05C405.27 191.05 406.78 198.96 408.49 210.81C415.252 217.827 423.371 223.395 432.353 227.176C441.335 230.957 450.992 232.872 460.737 232.803C470.482 232.735 480.111 230.685 489.039 226.779C497.967 222.873 506.007 217.191 512.67 210.08H512.69Z" fill="black"/>
<path d="M530.54 156.17C530.458 175.029 522.968 193.1 509.684 206.486C496.401 219.873 478.388 227.503 459.531 227.732C440.673 227.96 422.481 220.768 408.878 207.707C395.274 194.645 387.349 176.761 386.81 157.91C386.81 157.33 386.81 156.75 386.81 156.17C386.807 142.712 390.581 129.523 397.704 118.104C404.827 106.686 415.012 97.4955 427.1 91.5799C429.253 90.5265 431.467 89.5799 433.74 88.7399C445.564 84.3933 458.317 83.2076 470.74 85.2999C486.661 88.0109 501.203 96.0088 512.019 108.002C522.835 119.996 529.293 135.284 530.35 151.4C530.477 152.98 530.54 154.57 530.54 156.17Z" fill="#F7C4A7"/>
<g opacity="0.1">
<path opacity="0.1" d="M433.63 90.4299L433.73 90.3699C431.457 91.2099 429.243 92.1566 427.09 93.2099C415.002 99.1255 404.817 108.316 397.694 119.734C390.571 131.153 386.797 144.342 386.8 157.8C386.8 158.38 386.8 158.96 386.8 159.54C389.035 159.479 391.232 158.951 393.25 157.99C410.77 149.81 421.25 124.79 425.41 107.34C426.91 101.09 428.32 94.0499 433.63 90.4299Z" fill="black"/>
<path opacity="0.1" d="M488.64 92.4399C482.951 89.8265 476.943 87.9739 470.77 86.9299C475.832 88.0948 480.353 90.9349 483.6 94.9899C485.191 97.1539 486.511 99.5048 487.53 101.99C477.965 97.8076 467.605 95.7533 457.168 95.9692C446.73 96.185 436.464 98.6658 427.08 103.24C431.59 113.13 445.58 118.52 454.92 122.13C465.147 126.077 475.48 129.687 485.92 132.96L476.68 125.46L497.55 128.78C497.775 124.626 497.281 120.465 496.09 116.48C500.09 119.7 505.39 120.78 509.73 123.48C517.86 128.61 521.25 138.48 525.68 147.03C526.85 149.29 528.23 151.6 530.34 153.03C529.487 140.112 525.162 127.664 517.823 117C510.483 106.336 500.401 97.8505 488.64 92.4399Z" fill="black"/>
</g>
<path d="M433.63 88.8L433.73 88.74C431.457 89.58 429.243 90.5267 427.09 91.58C415.002 97.4956 404.817 106.686 397.694 118.104C390.571 129.523 386.797 142.712 386.8 156.17C386.8 156.75 386.8 157.33 386.8 157.91C389.035 157.85 391.232 157.322 393.25 156.36C410.77 148.18 421.25 123.16 425.41 105.71C426.91 99.5 428.32 92.43 433.63 88.8Z" fill="#774619"/>
<path d="M488.64 90.8201C482.951 88.2066 476.943 86.354 470.77 85.3101C475.832 86.4749 480.353 89.315 483.6 93.3701C485.191 95.534 486.511 97.8849 487.53 100.37C477.965 96.1878 467.605 94.1335 457.168 94.3493C446.73 94.5651 436.464 97.0459 427.08 101.62C431.59 111.51 445.58 116.9 454.92 120.51C465.147 124.457 475.48 128.067 485.92 131.34L476.68 123.84L497.55 127.16C497.775 123.007 497.281 118.846 496.09 114.86C500.09 118.08 505.39 119.16 509.73 121.86C517.86 126.99 521.25 136.86 525.68 145.41C526.85 147.67 528.23 149.98 530.34 151.41C529.487 138.492 525.162 126.044 517.823 115.38C510.483 104.716 500.401 96.2306 488.64 90.8201Z" fill="#774619"/>
<path opacity="0.1" d="M378.6 144.32C378.6 144.32 452.6 52.32 538.21 144.32L530.81 123.71C530.81 123.71 490.64 65.05 462.11 77.71C433.58 90.37 405.56 99.38 405.56 99.38L378.6 144.32Z" fill="black"/>
<path d="M378.6 142.69C378.6 142.69 452.6 50.6901 538.21 142.69L530.81 122.08C530.81 122.08 490.64 63.4201 462.11 76.0801C433.58 88.7401 405.56 97.7501 405.56 97.7501L378.6 142.69Z" fill="#413E3E"/>
<path opacity="0.1" d="M363.13 387.88C363.13 387.88 347.28 430.16 369.47 468.21C391.66 506.26 349.92 522.12 349.92 522.12" fill="black"/>
<path opacity="0.1" d="M574.67 302.83C574.67 302.83 602.15 337.71 584.18 368.89C566.21 400.07 567.27 475.12 567.27 475.12" fill="black"/>
<path d="M293.51 506.3H598.98C605.709 506.3 612.162 508.973 616.919 513.731C621.677 518.489 624.35 524.942 624.35 531.67H268.15C268.15 524.943 270.822 518.492 275.577 513.734C280.333 508.977 286.783 506.303 293.51 506.3Z" fill="#1F1F29"/>
<path d="M324.59 331.89H567.91C573.031 331.89 578.103 332.899 582.835 334.859C587.566 336.819 591.866 339.691 595.487 343.313C599.109 346.934 601.981 351.234 603.941 355.965C605.901 360.697 606.91 365.769 606.91 370.89V512.11H285.59V370.89C285.59 360.547 289.699 350.627 297.013 343.313C304.327 335.999 314.247 331.89 324.59 331.89Z" fill="#1F1F29"/>
<path d="M445.98 448.96C456.49 448.96 465.01 440.44 465.01 429.93C465.01 419.42 456.49 410.9 445.98 410.9C435.47 410.9 426.95 419.42 426.95 429.93C426.95 440.44 435.47 448.96 445.98 448.96Z" fill="white"/>
<path opacity="0.1" d="M382.83 101.2C382.83 101.2 455.55 28.5199 533.98 99.8699" stroke="black" stroke-miterlimit="10"/>
<path d="M552.35 96.5701H545.05V137.96H552.35V96.5701Z" fill="#828186"/>
<path d="M535.31 123.35C541.983 123.35 548.382 126.001 553.101 130.719C557.819 135.438 560.47 141.837 560.47 148.51V150.13C560.47 156.803 557.819 163.202 553.101 167.921C548.382 172.639 541.983 175.29 535.31 175.29V123.35Z" fill="black"/>
<path d="M541.8 126.6C541.8 123.463 539.257 120.92 536.12 120.92C532.983 120.92 530.44 123.463 530.44 126.6V172.05C530.44 175.187 532.983 177.73 536.12 177.73C539.257 177.73 541.8 175.187 541.8 172.05V126.6Z" fill="#828186"/>
<path d="M363.71 138.77H371.01V97.38H363.71V138.77Z" fill="#828186"/>
<path d="M380.75 176.1C374.077 176.1 367.678 173.449 362.959 168.731C358.241 164.012 355.59 157.613 355.59 150.94V149.32C355.59 146.016 356.241 142.744 357.505 139.692C358.77 136.639 360.623 133.866 362.959 131.529C365.296 129.193 368.069 127.34 371.122 126.075C374.174 124.811 377.446 124.16 380.75 124.16V176.1Z" fill="black"/>
<path d="M374.26 172.85C374.26 175.987 376.803 178.53 379.94 178.53C383.077 178.53 385.62 175.987 385.62 172.85V127.4C385.62 124.263 383.077 121.72 379.94 121.72C376.803 121.72 374.26 124.263 374.26 127.4V172.85Z" fill="#828186"/>
<path d="M544.19 52.3301C534.3 31.7701 512.76 6.9101 466.33 4.9201V4.86011H465.77L449.32 5.64011V5.72011C403.2 7.84011 381.76 32.6101 371.9 53.1001C365.333 66.9906 361.847 82.1365 361.68 97.5001L367.36 97.3601L373.04 97.2301C373.285 83.552 376.431 70.0818 382.27 57.7101C394.79 31.9901 417.83 18.3201 450.74 17.0501L465.29 16.2401C498.22 17.5001 521.27 31.1901 533.78 56.9001C539.629 69.2763 542.781 82.7538 543.03 96.4401L548.71 96.5701L554.39 96.7101C554.227 81.3547 550.747 66.216 544.19 52.3301Z" fill="black"/>
<path d="M803.68 532H28.97V740H803.68V532Z" fill="#434352"/>
<path opacity="0.1" d="M803.68 546H28.97V573H803.68V546Z" fill="black"/>
<path d="M855.63 529H-23V556H855.63V529Z" fill="#D6D6E3"/>
</g>
<defs>
<linearGradient id="paint0_linear" x1="416.32" y1="542.5" x2="416.32" y2="0" gradientUnits="userSpaceOnUse">
<stop stop-color="#808080" stop-opacity="0.25"/>
<stop offset="0.54" stop-color="#808080" stop-opacity="0.12"/>
<stop offset="1" stop-color="#808080" stop-opacity="0.1"/>
</linearGradient>
<clipPath id="clip0">
<rect width="900.94" height="787" fill="white"/>
</clipPath>
</defs>
</svg>
