<svg width="58" height="58" viewBox="0 0 58 58" fill="none" xmlns="http://www.w3.org/2000/svg">
<g clip-path="url(#clip0)">
<path d="M44.7083 58H13.2917C9.95908 58 7.25 55.2885 7.25 51.9583V6.04167C7.25 2.7115 9.95908 0 13.2917 0H44.7083C48.0409 0 50.75 2.7115 50.75 6.04167V51.9583C50.75 55.2885 48.0409 58 44.7083 58ZM13.2917 2.41667C11.2931 2.41667 9.66667 4.04308 9.66667 6.04167V51.9583C9.66667 53.9569 11.2931 55.5833 13.2917 55.5833H44.7083C46.7069 55.5833 48.3333 53.9569 48.3333 51.9583V6.04167C48.3333 4.04308 46.7069 2.41667 44.7083 2.41667H13.2917Z" fill="black"/>
<path d="M42.2917 41.0833H15.7083C15.0413 41.0833 14.5 40.542 14.5 39.875C14.5 39.208 15.0413 38.6667 15.7083 38.6667H42.2917C42.9587 38.6667 43.5 39.208 43.5 39.875C43.5 40.542 42.9587 41.0833 42.2917 41.0833Z" fill="black"/>
<path d="M42.2917 31.4167H15.7083C15.0413 31.4167 14.5 30.8753 14.5 30.2083C14.5 29.5413 15.0413 29 15.7083 29H42.2917C42.9587 29 43.5 29.5413 43.5 30.2083C43.5 30.8753 42.9587 31.4167 42.2917 31.4167Z" fill="black"/>
<path d="M42.2917 50.75H15.7083C15.0413 50.75 14.5 50.2087 14.5 49.5417C14.5 48.8747 15.0413 48.3333 15.7083 48.3333H42.2917C42.9587 48.3333 43.5 48.8747 43.5 49.5417C43.5 50.2087 42.9587 50.75 42.2917 50.75Z" fill="black"/>
<path d="M25.375 21.75H20.5417C18.5431 21.75 16.9167 20.1236 16.9167 18.125V10.875C16.9167 8.87642 18.5431 7.25 20.5417 7.25H25.375C26.042 7.25 26.5833 7.79133 26.5833 8.45833C26.5833 9.12533 26.042 9.66667 25.375 9.66667H20.5417C19.8771 9.66667 19.3333 10.208 19.3333 10.875V18.125C19.3333 18.792 19.8771 19.3333 20.5417 19.3333H25.375C26.042 19.3333 26.5833 19.8747 26.5833 20.5417C26.5833 21.2087 26.042 21.75 25.375 21.75Z" fill="black"/>
<path d="M36.25 21.75C35.7159 21.75 35.2471 21.3996 35.0924 20.8897L31.4674 8.80635C31.2741 8.16835 31.6366 7.4941 32.277 7.30077C32.9126 7.11468 33.5892 7.46993 33.7802 8.11035L36.25 16.3367L38.7174 8.11277C38.9083 7.47235 39.585 7.1171 40.2206 7.30318C40.861 7.49652 41.2235 8.16835 41.0302 8.80877L37.4052 20.8921C37.2529 21.3996 36.7841 21.75 36.25 21.75V21.75Z" fill="black"/>
</g>
<defs>
<clipPath id="clip0">
<rect width="58" height="58" fill="white"/>
</clipPath>
</defs>
</svg>
