<svg width="25" height="25" viewBox="0 0 25 25" fill="none" xmlns="http://www.w3.org/2000/svg">
<g clip-path="url(#clip0)">
<path d="M19.2708 25H5.72917C4.29271 25 3.125 23.8312 3.125 22.3958V2.60417C3.125 1.16875 4.29271 0 5.72917 0H19.2708C20.7073 0 21.875 1.16875 21.875 2.60417V22.3958C21.875 23.8312 20.7073 25 19.2708 25ZM5.72917 1.04167C4.86771 1.04167 4.16667 1.74271 4.16667 2.60417V22.3958C4.16667 23.2573 4.86771 23.9583 5.72917 23.9583H19.2708C20.1323 23.9583 20.8333 23.2573 20.8333 22.3958V2.60417C20.8333 1.74271 20.1323 1.04167 19.2708 1.04167H5.72917Z" fill="white"/>
<path d="M18.2292 17.7084H6.77083C6.48333 17.7084 6.25 17.475 6.25 17.1875C6.25 16.9 6.48333 16.6667 6.77083 16.6667H18.2292C18.5167 16.6667 18.75 16.9 18.75 17.1875C18.75 17.475 18.5167 17.7084 18.2292 17.7084Z" fill="white"/>
<path d="M18.2292 13.5417H6.77083C6.48333 13.5417 6.25 13.3083 6.25 13.0208C6.25 12.7333 6.48333 12.5 6.77083 12.5H18.2292C18.5167 12.5 18.75 12.7333 18.75 13.0208C18.75 13.3083 18.5167 13.5417 18.2292 13.5417Z" fill="white"/>
<path d="M18.2292 21.875H6.77083C6.48333 21.875 6.25 21.6417 6.25 21.3542C6.25 21.0667 6.48333 20.8333 6.77083 20.8333H18.2292C18.5167 20.8333 18.75 21.0667 18.75 21.3542C18.75 21.6417 18.5167 21.875 18.2292 21.875Z" fill="white"/>
<path d="M10.9375 9.375H8.85416C7.9927 9.375 7.29166 8.67396 7.29166 7.8125V4.6875C7.29166 3.82604 7.9927 3.125 8.85416 3.125H10.9375C11.225 3.125 11.4583 3.35833 11.4583 3.64583C11.4583 3.93333 11.225 4.16667 10.9375 4.16667H8.85416C8.5677 4.16667 8.33332 4.4 8.33332 4.6875V7.8125C8.33332 8.1 8.5677 8.33333 8.85416 8.33333H10.9375C11.225 8.33333 11.4583 8.56667 11.4583 8.85417C11.4583 9.14167 11.225 9.375 10.9375 9.375Z" fill="white"/>
<path d="M15.625 9.37501C15.3948 9.37501 15.1927 9.22397 15.1261 9.00418L13.5636 3.79585C13.4802 3.52085 13.6365 3.23022 13.9125 3.14689C14.1865 3.06668 14.4781 3.2198 14.5604 3.49585L15.625 7.04168L16.6886 3.49689C16.7708 3.22085 17.0625 3.06772 17.3365 3.14793C17.6125 3.23126 17.7688 3.52085 17.6854 3.79689L16.1229 9.00522C16.0573 9.22397 15.8552 9.37501 15.625 9.37501V9.37501Z" fill="white"/>
</g>
<defs>
<clipPath id="clip0">
<rect width="25" height="25" fill="white"/>
</clipPath>
</defs>
</svg>
