<svg width="25" height="25" viewBox="0 0 25 25" fill="none" xmlns="http://www.w3.org/2000/svg">
<path d="M19.7917 0H5.20832C2.33229 0 0 2.33229 0 5.20832V19.7917C0 22.6677 2.33229 25 5.20832 25H19.7917C22.6687 25 25 22.6677 25 19.7917V5.20832C25 2.33229 22.6687 0 19.7917 0ZM15.1396 20.4062C14.7177 20.4875 14.5833 20.2281 14.5833 20.0063V17.7198C14.5833 16.9417 14.3104 16.4354 14.0104 16.1771C15.8667 15.9708 17.8167 15.2656 17.8167 12.0656C17.8167 11.1552 17.4917 10.4115 16.9594 9.82918C17.0448 9.61875 17.3302 8.77082 16.8771 7.62397C16.8771 7.62397 16.1781 7.4 14.5875 8.47815C13.9208 8.29065 13.2083 8.2 12.5 8.19582C11.7917 8.19897 11.0792 8.29065 10.4135 8.47603C8.8219 7.39793 8.1219 7.6219 8.1219 7.6219C7.66978 8.76978 7.95522 9.61668 8.04168 9.82815C7.50832 10.4115 7.18332 11.1542 7.18332 12.0646C7.18332 15.2562 9.12815 15.9719 10.9802 16.1833C10.7417 16.3917 10.526 16.7583 10.451 17.2979C9.975 17.5104 8.76978 17.8781 8.02603 16.6042C8.02603 16.6042 7.58543 15.8042 6.74793 15.7448C6.74793 15.7448 5.93543 15.7344 6.69065 16.2521C6.69065 16.2521 7.2375 16.5083 7.61668 17.4708C7.61668 17.4708 8.09897 18.9583 10.4167 18.4542V20.0052C10.4167 20.225 10.2823 20.4833 9.86668 20.4062C6.55418 19.3052 4.16667 16.1812 4.16667 12.5C4.16667 7.8969 7.89793 4.16667 12.5 4.16667C17.1021 4.16667 20.8333 7.8969 20.8333 12.5C20.8333 16.1802 18.449 19.3031 15.1396 20.4062Z" fill="white"/>
</svg>
