<svg width="25" height="25" viewBox="0 0 25 25" fill="none" xmlns="http://www.w3.org/2000/svg">
<path d="M19.7917 0H5.20832C2.33229 0 0 2.33229 0 5.20832V19.7917C0 22.6677 2.33229 25 5.20832 25H19.7917C22.6687 25 25 22.6677 25 19.7917V5.20832C25 2.33229 22.6687 0 19.7917 0ZM8.33332 19.7917H5.20832V8.33332H8.33332V19.7917ZM6.77082 7.0125C5.76457 7.0125 4.94793 6.18957 4.94793 5.175C4.94793 4.16042 5.76457 3.3375 6.77082 3.3375C7.77707 3.3375 8.59375 4.16042 8.59375 5.175C8.59375 6.18957 7.77815 7.0125 6.77082 7.0125ZM20.8333 19.7917H17.7083V13.9542C17.7083 10.4458 13.5417 10.7115 13.5417 13.9542V19.7917H10.4167V8.33332H13.5417V10.1719C14.9958 7.47815 20.8333 7.27918 20.8333 12.751V19.7917Z" fill="white"/>
</svg>
